<?xml version="1.0" standalone="no"?>
<!DOCTYPE svg PUBLIC "-//W3C//DTD SVG 20010904//EN"
 "http://www.w3.org/TR/2001/REC-SVG-20010904/DTD/svg10.dtd">
<svg version="1.0" xmlns="http://www.w3.org/2000/svg"
 width="300.000000pt" height="273.000000pt" viewBox="0 0 300.000000 273.000000"
 preserveAspectRatio="xMidYMid meet">
<metadata>
Created by potrace 1.10, written by Peter Selinger 2001-2011
</metadata>
<g transform="translate(0.000000,273.000000) scale(0.100000,-0.100000)"
fill="#000000" stroke="none">
<path d="M1420 2641 c-73 -23 -157 -98 -188 -169 -25 -58 -22 -176 6 -233 111
-228 431 -224 533 6 31 69 31 161 -1 233 -28 65 -102 134 -167 156 -48 17
-140 20 -183 7z m198 -57 c63 -31 104 -79 126 -146 20 -63 20 -93 0 -156 -35
-108 -125 -172 -242 -172 -132 0 -236 93 -249 224 -7 66 10 125 50 178 73 96
206 127 315 72z"/>
<path d="M443 2254 c-59 -21 -127 -86 -159 -150 -56 -115 -26 -256 72 -343 61
-53 128 -75 213 -69 107 8 194 68 243 167 31 63 32 176 2 242 -63 135 -227
203 -371 153z m179 -34 c141 -37 218 -209 154 -345 -45 -98 -137 -150 -250
-143 -145 9 -253 144 -230 288 16 98 105 190 204 209 49 9 52 9 122 -9z"/>
<path d="M2332 2239 c-97 -48 -151 -128 -160 -235 -18 -227 214 -385 416 -283
107 53 162 142 162 259 0 85 -25 147 -84 206 -91 90 -219 111 -334 53z m233
-29 c158 -67 198 -286 74 -409 -48 -47 -104 -71 -169 -71 -77 0 -120 14 -170
57 -108 93 -121 253 -27 359 78 88 182 111 292 64z"/>
<path d="M1242 1961 c-66 -23 -117 -63 -159 -125 -40 -59 -51 -98 -55 -201 -2
-69 0 -80 15 -83 18 -4 19 0 18 68 -2 61 23 151 55 199 62 95 207 148 291 106
50 -25 113 -29 163 -10 105 40 199 24 278 -48 67 -62 85 -106 92 -217 4 -80 8
-95 23 -98 15 -3 17 6 17 82 0 111 -25 179 -88 244 -91 93 -200 122 -310 82
-67 -24 -118 -23 -173 5 -38 20 -102 18 -167 -4z"/>
<path d="M1210 1640 c0 -83 1 -90 20 -90 19 0 20 7 20 90 0 83 -1 90 -20 90
-19 0 -20 -7 -20 -90z"/>
<path d="M1760 1640 c0 -82 2 -91 18 -88 15 3 17 15 17 88 0 73 -2 85 -17 88
-16 3 -18 -6 -18 -88z"/>
<path d="M288 1585 c-95 -35 -176 -120 -204 -213 -8 -25 -14 -81 -14 -124 0
-70 2 -79 18 -76 14 3 18 18 23 98 6 105 18 137 76 201 47 52 103 80 173 86
42 4 65 1 91 -12 45 -24 143 -25 186 -2 110 59 298 -41 334 -177 14 -52 24
-72 35 -69 19 5 14 56 -12 113 -62 139 -247 230 -354 175 -52 -27 -110 -29
-168 -6 -60 24 -130 26 -184 6z"/>
<path d="M2220 1591 c-100 -31 -189 -118 -219 -215 -13 -42 -16 -65 -9 -73 16
-19 25 -8 42 50 28 96 95 165 189 196 44 15 96 10 183 -15 60 -17 61 -17 133
6 120 38 215 12 295 -82 45 -52 66 -120 66 -215 0 -68 1 -73 21 -73 21 0 22 3
17 98 -4 79 -10 107 -31 149 -73 143 -241 218 -366 164 -61 -26 -103 -26 -160
-1 -44 20 -114 25 -161 11z"/>
<path d="M261 1346 c-8 -9 -11 -43 -9 -92 2 -64 6 -79 20 -82 14 -3 17 9 20
83 3 89 -7 120 -31 91z"/>
<path d="M800 1260 c0 -83 1 -90 20 -90 19 0 20 7 20 90 0 83 -1 90 -20 90
-19 0 -20 -7 -20 -90z"/>
<path d="M2170 1260 c0 -82 2 -91 18 -88 15 3 17 15 17 88 0 73 -2 85 -17 88
-16 3 -18 -6 -18 -88z"/>
<path d="M2718 1343 c-2 -4 -3 -44 -3 -88 0 -68 3 -80 18 -83 15 -3 17 6 17
77 0 45 0 84 1 89 0 10 -28 15 -33 5z"/>
<path d="M1097 1274 c-4 -4 -7 -31 -7 -61 0 -29 -3 -53 -7 -53 -5 1 -34 7 -67
15 -108 26 -131 -1 -123 -144 5 -94 29 -172 69 -222 31 -38 82 -59 145 -59
l63 0 21 -41 c42 -83 157 -179 215 -179 14 0 16 -11 12 -93 -4 -75 -9 -102
-31 -144 -15 -29 -27 -59 -27 -68 0 -11 -11 -15 -45 -15 -59 0 -113 -46 -122
-102 -11 -69 -15 -68 311 -68 188 0 296 4 302 10 7 7 8 29 4 57 -10 65 -53
103 -115 103 -34 0 -45 4 -45 15 0 9 -13 41 -29 73 -42 85 -51 232 -14 232 22
0 89 37 128 71 19 17 51 58 71 90 l37 59 59 0 c94 0 137 32 184 135 21 45 29
80 32 142 6 104 -1 129 -38 148 -27 14 -36 14 -91 0 -34 -9 -64 -14 -67 -11
-3 3 -5 29 -6 58 -1 63 -1 62 -136 32 -118 -26 -439 -27 -550 -1 -119 28 -125
29 -133 21z m143 -62 c149 -33 511 -20 623 23 15 6 17 0 17 -51 0 -159 -37
-338 -90 -445 -74 -146 -209 -212 -358 -175 -84 20 -136 57 -187 132 -69 100
-115 286 -115 463 0 75 2 82 18 76 9 -3 51 -14 92 -23z m-198 -79 l47 -5 6
-67 c6 -59 34 -199 50 -257 6 -20 4 -21 -47 -17 -29 3 -64 13 -78 22 -37 26
-67 86 -86 169 -24 108 -6 182 40 167 12 -4 42 -9 68 -12z m1027 3 c20 -23 15
-146 -8 -211 -26 -73 -44 -101 -79 -118 -32 -17 -122 -28 -122 -16 0 5 9 42
20 82 12 39 24 112 27 160 3 51 11 90 17 92 14 4 107 22 122 24 6 0 17 -5 23
-13z m-519 -699 c0 -69 4 -90 32 -149 17 -37 29 -71 26 -73 -3 -3 -53 -4 -112
-3 l-106 3 32 65 c27 54 33 79 36 151 l4 86 44 1 44 0 0 -81z m203 -295 c15
-15 27 -36 27 -45 0 -16 -23 -17 -275 -17 -252 0 -275 1 -275 17 0 9 12 30 27
45 l27 28 221 0 221 0 27 -28z"/>
<path d="M1472 1016 c-19 -41 -25 -45 -67 -51 -25 -4 -48 -12 -51 -17 -4 -5 9
-26 28 -46 33 -35 34 -39 27 -82 -5 -25 -5 -48 0 -53 5 -5 27 2 53 16 l43 26
39 -24 c52 -31 67 -21 54 37 -8 39 -7 43 28 79 20 20 34 42 30 47 -3 6 -27 13
-54 17 -45 6 -48 9 -66 51 -10 24 -23 44 -30 44 -7 0 -22 -20 -34 -44z m100
-86 l33 0 -29 -23 c-25 -20 -27 -27 -21 -56 l7 -33 -31 17 c-28 14 -34 14 -53
0 -33 -22 -38 -19 -26 16 10 28 8 33 -18 55 l-29 23 25 1 c31 0 44 9 59 39
l13 23 19 -31 c15 -24 26 -31 51 -31z"/>
</g>
</svg>
